<svg xmlns="http://www.w3.org/2000/svg" width="610.1" height="171">
	<style>
	.st0 {fill: none;
		stroke: #66585c;
		stroke-width: 5;
		stroke-miterlimit: 10;
	}
	.st1 {
		fill: #fff;
	}
	.st2 {
		fill: #0984e3;
	}
	</style>
	<path class="st0" d="M117 70.7v38.4H2.5V70.7" />
	<path class="st1" d="M212.7 148.7l2 3.1-9.1 5.3 9.1 5.2-2 3.2-10.9-6.8v-3.2l10.9-6.8zM228.4 162.5h3.6v3.4h-12.6v-3.4h4.7v-11.7l-4 2.5-1.9-3.1 6.3-3.8h3.9v16.1zM237.3 148.7l10.9 6.8v3.2l-10.9 6.8-2-3 9.1-5.3-9.1-5.2 2-3.3z" />
	<path class="st0" d="M282.2 70.7v38.4H167.7V70.7" />
	<path class="st2" d="M175.3 53.6h99.2v47.7h-99.2z" />
	<path class="st1" d="M229.1 84.5h3.8V88h-13.2v-3.5h4.9V72.2l-4.2 2.6-2-3.2 6.6-4h4.1v16.9z" />
	<path class="st1" d="M374.9 148.7l2 3.1-9.1 5.3 9.1 5.2-2 3.2-10.9-6.8v-3.2l10.9-6.8zM390.2 146.7c1 .5 1.8 1.2 2.3 2 .5.8.8 1.8.8 2.8 0 1.1-.2 2.1-.7 3.1s-1.3 2.1-2.4 3.3c-1.1 1.2-2.7 2.7-4.7 4.5h8.3l-.5 3.4h-12.9v-3.1c2.3-2.2 4-4 5.2-5.2s2-2.3 2.5-3.2c.5-.9.8-1.7.8-2.5s-.2-1.4-.7-1.9-1.1-.7-1.9-.7c-.7 0-1.4.2-1.9.5s-1.1.8-1.6 1.5l-2.7-2c.8-1.1 1.7-1.9 2.8-2.5s2.4-.9 3.9-.9c1.1.1 2.4.4 3.4.9zM399.5 148.7l10.9 6.8v3.2l-10.9 6.8-2-3 9.1-5.3-9.1-5.2 2-3.3z" />
	<path class="st0" d="M444.5 70.7v38.4H329.9V70.7" />
	<path class="st2" d="M337.6 53.6h99.2v47.7h-99.2zM337.6 0h99.2v47.7h-99.2z" />
	<path class="st1" d="M391.4 84.5h3.8V88H382v-3.5h4.9V72.2l-4.2 2.6-2-3.2 6.6-4h4.1v16.9zM390.9 13.9a5 5 0 0 1 2.4 2.1c.5.9.8 1.9.8 2.9 0 1.1-.3 2.2-.8 3.2s-1.3 2.2-2.5 3.5c-1.2 1.3-2.8 2.9-5 4.8h8.7L394 34h-13.5v-3.3c2.4-2.3 4.2-4.1 5.4-5.5 1.2-1.3 2.1-2.4 2.6-3.3.5-.9.8-1.8.8-2.6s-.2-1.5-.7-2c-.5-.5-1.1-.7-2-.7-.8 0-1.4.2-2 .5a5 5 0 0 0-1.7 1.6l-2.8-2.1c.8-1.1 1.8-2 2.9-2.6 1.1-.6 2.5-.9 4-.9 1.6 0 2.9.3 3.9.8z" />
	<path class="st1" d="M514.1 163.6c-1.3 1.8-3.3 2.7-5.8 2.7s-4.4-.9-5.8-2.7c-1.3-1.8-2-4.3-2-7.5s.7-5.6 2-7.5c1.3-1.8 3.3-2.7 5.8-2.7s4.4.9 5.8 2.7 2 4.3 2 7.5-.7 5.7-2 7.5zm-3.4-12.7c-.5-1.1-1.3-1.6-2.3-1.6-1.1 0-1.9.5-2.3 1.6-.5 1.1-.7 2.8-.7 5.2s.2 4.1.7 5.2c.5 1.1 1.3 1.6 2.3 1.6 1.1 0 1.9-.5 2.4-1.6s.7-2.8.7-5.2-.4-4.1-.8-5.2zM530.8 157.7c-1.4 1.1-3.2 1.7-5.6 1.7h-2.1v6.5h-4.6v-19.4h6.1c2.7 0 4.7.5 6.2 1.6s2.1 2.6 2.1 4.7-.7 3.8-2.1 4.9zm-6.2-8H523v6.4h1.8c1 0 1.9-.3 2.4-.8s.9-1.4.9-2.5c0-2.1-1.1-3.1-3.5-3.1zM534.9 171v-3.5h14v3.5h-14zM561.5 161.6h-5.7l-1 4.2H550l5.9-19.4h5.6l5.9 19.4h-4.9l-1-4.2zm-4.9-3.3h4.2l-2.1-8.6-2.1 8.6zM573.8 165.8h-5.2v-19.4h4.9c2.9 0 5.3.7 7.1 2.1 1.8 1.4 2.7 3.9 2.7 7.5-.1 6.6-3.2 9.8-9.5 9.8zm3.5-14.7c-.7-.9-1.8-1.3-3.2-1.3h-1v12.7h1c1.4 0 2.5-.5 3.2-1.4.7-1 1.1-2.6 1.1-5 .1-2.5-.3-4.1-1.1-5zM590.6 165.8h-5.2v-19.4h4.9c2.9 0 5.3.7 7.1 2.1 1.8 1.4 2.7 3.9 2.7 7.5-.1 6.6-3.2 9.8-9.5 9.8zm3.5-14.7c-.7-.9-1.8-1.3-3.2-1.3h-1v12.7h1c1.4 0 2.5-.5 3.2-1.4.7-1 1.1-2.6 1.1-5 .1-2.5-.3-4.1-1.1-5z" />
	<path class="st0" d="M607.6 70.7v38.4H493.1V70.7" />
	<path class="st2" d="M500.7 53.6h99.2v47.7h-99.2z" />
	<path class="st1" d="M553.8 67.8c1 .5 1.9 1.1 2.4 1.9.6.8.8 1.7.8 2.6 0 1.3-.4 2.3-1.1 3.1s-1.8 1.4-3.1 1.8c3.2.4 4.8 2.1 4.8 5.1 0 1.2-.3 2.2-1 3.2-.6 1-1.6 1.7-2.7 2.2s-2.6.8-4.2.8c-1.5 0-2.8-.3-4.1-.8-1.2-.5-2.3-1.3-3.1-2.3l2.6-2.4c1.1 1.3 2.5 1.9 4.2 1.9 1 0 1.9-.3 2.5-.8s.9-1.3.9-2.2c0-2-1.1-3.1-3.4-3.1h-1.9l.5-3.2h1.3c.9 0 1.7-.2 2.2-.7.6-.5.8-1.1.8-2 0-.8-.3-1.4-.8-1.8-.5-.4-1.3-.7-2.1-.7-1.5 0-2.8.6-4.1 1.8l-2.4-2.5c1.9-1.8 4.2-2.8 7-2.8 1.7.2 2.9.5 4 .9z" />
</svg>